<?xml version="1.0" encoding="UTF-8" standalone="no"?>
<!-- Created with Inkscape (http://www.inkscape.org/) -->

<svg
   xmlns:dc="http://purl.org/dc/elements/1.1/"
   xmlns:cc="http://creativecommons.org/ns#"
   xmlns:rdf="http://www.w3.org/1999/02/22-rdf-syntax-ns#"
   xmlns:svg="http://www.w3.org/2000/svg"
   xmlns="http://www.w3.org/2000/svg"
   xmlns:sodipodi="http://sodipodi.sourceforge.net/DTD/sodipodi-0.dtd"
   xmlns:inkscape="http://www.inkscape.org/namespaces/inkscape"
   version="1.1"
   id="svg815"
   width="1024"
   height="1024"
   viewBox="0 0 1024 1024"
   sodipodi:docname="1xzoom_constellation_zeroStrain_supercontrast_inverted2.svg"
   inkscape:version="0.92.3 (2405546, 2018-03-11)"
   inkscape:export-filename="/home/jeremy/Documents/DIE_DIPLOMARBEIT/Chapters/Figures/1xzoom_constellation_zeroStrain_supercontrast_inverted2.png"
   inkscape:export-xdpi="300"
   inkscape:export-ydpi="300">
  <metadata
     id="metadata821">
    <rdf:RDF>
      <cc:Work
         rdf:about="">
        <dc:format>image/svg+xml</dc:format>
        <dc:type
           rdf:resource="http://purl.org/dc/dcmitype/StillImage" />
        <dc:title></dc:title>
      </cc:Work>
    </rdf:RDF>
  </metadata>
  <defs
     id="defs819" />
  <sodipodi:namedview
     pagecolor="#ffffff"
     bordercolor="#666666"
     borderopacity="1"
     objecttolerance="10"
     gridtolerance="10"
     guidetolerance="10"
     inkscape:pageopacity="0"
     inkscape:pageshadow="2"
     inkscape:window-width="1853"
     inkscape:window-height="1021"
     id="namedview817"
     showgrid="false"
     inkscape:zoom="0.70710678"
     inkscape:cx="347.68652"
     inkscape:cy="553.99475"
     inkscape:window-x="67"
     inkscape:window-y="25"
     inkscape:window-maximized="1"
     inkscape:current-layer="svg815" />
  <path
     style="fill:#000000;stroke-width:2.00564647"
     d="m 863.65809,755.85053 c 0,-1.1696 0.90148,-1.56806 2.00327,-0.8855 1.1018,0.68256 2.00326,1.63952 2.00326,2.12654 0,0.48702 -0.90146,0.8855 -2.00326,0.8855 -1.10179,0 -2.00327,-0.95694 -2.00327,-2.12654 z"
     id="path4655"
     inkscape:connector-curvature="0"
     inkscape:export-xdpi="300"
     inkscape:export-ydpi="300" />
  <path
     style="fill:#000000;stroke-width:2.00564647"
     d="m 110.92688,740.8732 c -4.62318,-5.12066 -2.69058,-10.16376 3.8949,-10.16376 5.78364,0 8.67816,4.9347 5.6847,9.69152 -2.98106,4.73716 -5.61194,4.86686 -9.5796,0.47224 z"
     id="path4653"
     inkscape:connector-curvature="0"
     inkscape:export-xdpi="300"
     inkscape:export-ydpi="300" />
  <path
     style="fill:#000000;stroke-width:2.00564647"
     d="m 194.90726,733.66613 c -7.0651,-7.08184 -3.82376,-11.10182 7.2695,-9.01578 8.35716,1.57154 9.25322,7.02246 1.72962,10.5218 -4.3575,2.02674 -5.69862,1.8023 -8.99912,-1.50602 z"
     id="path4651"
     inkscape:connector-curvature="0"
     inkscape:export-xdpi="300"
     inkscape:export-ydpi="300" />
  <path
     style="fill:#000000;stroke-width:2.00564647"
     d="m 1.049869,708.94811 c 0,-2.76102 0.454691,-3.89054 1.010424,-2.51002 0.555733,1.38052 0.555733,3.63954 0,5.02006 -0.555733,1.38052 -1.010424,0.251 -1.010424,-2.51004 z"
     id="path4649"
     inkscape:connector-curvature="0"
     inkscape:export-xdpi="300"
     inkscape:export-ydpi="300" />
  <path
     style="fill:#000000;stroke-width:2.00564647"
     d="m 356.35528,635.84433 c -3.425,-3.43312 -3.01768,-9.5632 0.73128,-11.00522 4.74542,-1.82528 10.33518,4.57166 7.6807,8.78986 -2.81364,4.4711 -5.46498,5.16934 -8.41198,2.21536 z"
     id="path4647"
     inkscape:connector-curvature="0"
     inkscape:export-xdpi="300"
     inkscape:export-ydpi="300" />
  <path
     style="fill:#000000;stroke-width:2.00564647"
     d="m 705.47032,577.7308 c -2.14178,-2.58678 -2.01666,-3.33154 0.73768,-4.391 4.3735,-1.68224 5.9576,0.1338 3.6781,4.21664 -1.6544,2.96324 -2.09238,2.98054 -4.41578,0.1742 z"
     id="path4645"
     inkscape:connector-curvature="0"
     inkscape:export-xdpi="300"
     inkscape:export-ydpi="300" />
  <path
     style="fill:#000000;stroke-width:2.00564647"
     d="m 9.258137,565.57775 c -4.62781,-2.697 -4.488924,-11.21488 0.224088,-13.74318 2.658128,-1.42596 4.803528,-1.2139 7.46669,0.73808 3.056932,2.24058 3.380664,3.74938 1.779186,8.29218 -2.264874,6.42468 -4.566908,7.5703 -9.469964,4.71292 z"
     id="path4643"
     inkscape:connector-curvature="0"
     inkscape:export-xdpi="300"
     inkscape:export-ydpi="300" />
  <path
     style="fill:#000000;stroke-width:2.00564647"
     d="m 581.03517,551.18482 c -3.06356,-5.73792 -2.7033,-6.63778 2.36848,-5.91576 2.88386,0.41054 4.50736,2.02792 4.50736,4.49038 0,5.35996 -4.29922,6.2512 -6.87584,1.42538 z"
     id="path4641"
     inkscape:connector-curvature="0"
     inkscape:export-xdpi="300"
     inkscape:export-ydpi="300" />
  <path
     style="fill:#000000;stroke-width:2.00564647"
     d="m 483.2083,525.68101 c 0,-5.64036 2.32328,-6.46056 5.937,-2.09598 2.78498,3.36364 1.1765,7.11602 -3.05032,7.11602 -1.74362,0 -2.88668,-1.98784 -2.88668,-5.02004 z"
     id="path4639"
     inkscape:connector-curvature="0"
     inkscape:export-xdpi="300"
     inkscape:export-ydpi="300" />
  <path
     style="fill:#000000;stroke-width:2.00564647"
     d="m 461.14199,477.93804 c -3.02748,-1.87554 -1.6331,-8.15112 1.81112,-8.15112 2.93312,0 4.93992,5.89168 2.75334,8.08344 -1.00464,1.00702 -3.00038,1.03662 -4.56446,0.0676 z"
     id="path4637"
     inkscape:connector-curvature="0"
     inkscape:export-xdpi="300"
     inkscape:export-ydpi="300" />
  <path
     style="fill:#000000;stroke-width:2.00564647"
     d="m 222.4143,423.91958 c -1.6565,-5.23154 3.0224,-10.48126 7.72834,-8.67114 3.9139,1.50546 4.4174,7.0325 0.95664,10.50146 -3.63774,3.64634 -7.18776,2.8982 -8.68498,-1.83032 z"
     id="path4635"
     inkscape:connector-curvature="0"
     inkscape:export-xdpi="300"
     inkscape:export-ydpi="300" />
  <path
     style="fill:#000000;stroke-width:2.00564647"
     d="m 520.13276,421.29907 c -0.63418,-1.65662 -0.27988,-3.01204 0.78732,-3.01204 1.06722,0 1.9404,1.35542 1.9404,3.01204 0,1.65662 -0.3543,3.01202 -0.7873,3.01202 -0.43302,0 -1.3062,-1.3554 -1.94042,-3.01202 z"
     id="path4633"
     inkscape:connector-curvature="0"
     inkscape:export-xdpi="300"
     inkscape:export-ydpi="300" />
  <path
     style="fill:#000000;stroke-width:2.00564647"
     d="m 762.43784,421.48781 c -0.73454,-0.73626 -1.33552,-3.4471 -1.33552,-6.02408 0,-3.37082 1.14172,-4.68536 4.06942,-4.68536 5.04316,0 7.23424,5.0618 3.9225,9.06166 -2.6936,3.25328 -4.58708,3.72202 -6.6564,1.64778 z"
     id="path4631"
     inkscape:connector-curvature="0"
     inkscape:export-xdpi="300"
     inkscape:export-ydpi="300" />
  <path
     style="fill:#000000;stroke-width:2.00564647"
     d="m 255.78796,393.8989 c -1.2572,-3.284 0.22016,-5.21638 3.98808,-5.21638 1.46906,0 2.67104,1.80722 2.67104,4.01604 0,4.56592 -5.02398,5.47152 -6.65912,1.20034 z"
     id="path4629"
     inkscape:connector-curvature="0"
     inkscape:export-xdpi="300"
     inkscape:export-ydpi="300" />
  <path
     style="fill:#000000;stroke-width:2.00564647"
     d="m 511.94486,386.66069 c -1.75808,-4.59232 0.70484,-9.0361 5.00818,-9.0361 2.12028,0 4.37398,1.35541 5.00818,3.01203 1.75808,4.59232 -0.70484,9.03611 -5.00818,9.03611 -2.1203,0 -4.37398,-1.35542 -5.00818,-3.01204 z"
     id="path4627"
     inkscape:connector-curvature="0"
     inkscape:export-xdpi="300"
     inkscape:export-ydpi="300" />
  <path
     style="fill:#000000;stroke-width:2.00564647"
     d="m 447.82823,381.91138 c -1.71698,-5.42254 2.92066,-10.6232 7.79964,-8.74652 5.15442,1.98264 3.53476,11.68202 -2.08474,12.48448 -3.00428,0.42898 -4.75888,-0.71864 -5.7149,-3.73796 z"
     id="path4625"
     inkscape:connector-curvature="0"
     inkscape:export-xdpi="300"
     inkscape:export-ydpi="300" />
  <path
     style="fill:#000000;stroke-width:2.00564647"
     d="m 511.24818,340.40571 c -2.67102,-1.7576 -2.67102,-2.19698 0,-3.95456 3.67478,-2.41806 4.2861,-2.43572 7.76894,-0.2245 3.04464,1.93302 1.39084,6.23564 -2.37816,6.18708 -1.31224,-0.016 -3.73808,-0.92052 -5.39078,-2.00802 z"
     id="path4623"
     inkscape:connector-curvature="0"
     inkscape:export-xdpi="300"
     inkscape:export-ydpi="300" />
  <path
     style="fill:#000000;stroke-width:2.00564647"
     d="m 465.534,333.88532 c -3.6499,-3.65854 -3.05358,-7.0934 1.82624,-10.51946 6.09454,-4.2789 12.16732,-0.82056 11.32916,6.45178 -0.46646,4.0472 -1.86996,5.53332 -5.64312,5.9753 -2.76226,0.32356 -6.14278,-0.53488 -7.51228,-1.90762 z"
     id="path4621"
     inkscape:connector-curvature="0"
     inkscape:export-xdpi="300"
     inkscape:export-ydpi="300" />
  <path
     style="fill:#000000;stroke-width:2.00564647"
     d="m 761.51461,209.83417 c -4.16058,-2.74744 -5.07584,-9.92536 -1.69738,-13.31182 4.06114,-4.07076 7.78688,-4.09226 11.80148,-0.068 7.9632,7.98208 -0.7685,19.54468 -10.1041,13.37998 z"
     id="path4619"
     inkscape:connector-curvature="0"
     inkscape:export-xdpi="300"
     inkscape:export-ydpi="300" />
  <path
     style="fill:#000000;stroke-width:2.00564647"
     d="m 271.08804,208.61508 c -2.17666,-2.18178 -1.52284,-9.71846 1.0684,-12.31586 1.32216,-1.32528 4.46016,-2.40962 6.9733,-2.40962 5.49346,0 8.47368,8.4288 4.6241,13.07822 -2.5263,3.05124 -10.26152,4.05726 -12.6658,1.64726 z"
     id="path4617"
     inkscape:connector-curvature="0"
     inkscape:export-xdpi="300"
     inkscape:export-ydpi="300" />
  <path
     style="fill:#000000;stroke-width:2.00564647"
     d="m 255.23812,57.731659 c -6.87486,-6.891145 1.32506,-16.062303 9.33388,-10.439422 6.00476,4.215853 4.92166,11.557143 -1.8216,12.347043 -2.76226,0.323566 -6.14278,-0.534863 -7.51228,-1.907621 z"
     id="path825"
     inkscape:connector-curvature="0"
     inkscape:export-xdpi="300"
     inkscape:export-ydpi="300" />
</svg>
