<?xml version="1.0" encoding="UTF-8" standalone="no"?>
<!-- Created with Inkscape (http://www.inkscape.org/) -->

<svg
   xmlns:dc="http://purl.org/dc/elements/1.1/"
   xmlns:cc="http://creativecommons.org/ns#"
   xmlns:rdf="http://www.w3.org/1999/02/22-rdf-syntax-ns#"
   xmlns:svg="http://www.w3.org/2000/svg"
   xmlns="http://www.w3.org/2000/svg"
   xmlns:sodipodi="http://sodipodi.sourceforge.net/DTD/sodipodi-0.dtd"
   xmlns:inkscape="http://www.inkscape.org/namespaces/inkscape"
   version="1.1"
   id="svg2"
   xml:space="preserve"
   width="780.12006"
   height="976.63647"
   viewBox="0 0 780.12006 976.63647"
   sodipodi:docname="confocal_fluorescent_diagram_b.svg"
   inkscape:version="0.92.3 (2405546, 2018-03-11)"><metadata
     id="metadata8"><rdf:RDF><cc:Work
         rdf:about=""><dc:format>image/svg+xml</dc:format><dc:type
           rdf:resource="http://purl.org/dc/dcmitype/StillImage" /><dc:title></dc:title></cc:Work></rdf:RDF></metadata><defs
     id="defs6" /><sodipodi:namedview
     pagecolor="#ffffff"
     bordercolor="#666666"
     borderopacity="1"
     objecttolerance="10"
     gridtolerance="10"
     guidetolerance="10"
     inkscape:pageopacity="0"
     inkscape:pageshadow="2"
     inkscape:window-width="1859"
     inkscape:window-height="1020"
     id="namedview4"
     showgrid="false"
     inkscape:zoom="0.70710678"
     inkscape:cx="97.77565"
     inkscape:cy="321.51204"
     inkscape:window-x="61"
     inkscape:window-y="28"
     inkscape:window-maximized="1"
     inkscape:current-layer="g10" /><g
     id="g10"
     inkscape:groupmode="layer"
     inkscape:label="confocal_fluorescent_diagram_b"
     transform="matrix(1.3333333,0,0,1.3333333,0,1.9749245e-5)"><g
       id="g12"><path
         d="m 480.984,102.602 c 0,4.601 -1.804,8.332 -4.031,8.332 -2.223,0 -4.027,-3.731 -4.027,-8.332 0,-4.602 1.804,-8.336 4.027,-8.336 2.227,0 4.031,3.734 4.031,8.336 z"
         style="fill:#4fff3f;fill-opacity:1;fill-rule:nonzero;stroke:none"
         id="path14"
         inkscape:connector-curvature="0" /><g
         id="g16"><path
           d="M 477.531,128.168 C 477,221.023 478.5,313.273 478.539,406.199"
           style="fill:none;stroke:#4fff3f;stroke-width:5.25;stroke-linecap:butt;stroke-linejoin:miter;stroke-miterlimit:10;stroke-dasharray:none;stroke-opacity:1"
           id="path18"
           inkscape:connector-curvature="0" /></g><g
         id="g20"><path
           d="m 477.113,404.512 1.141,222.347"
           style="fill:none;stroke:#3546ff;stroke-width:5.25;stroke-linecap:butt;stroke-linejoin:miter;stroke-miterlimit:10;stroke-dasharray:none;stroke-opacity:1"
           id="path22"
           inkscape:connector-curvature="0" /></g><g
         id="g24"><path
           d="m 482.281,409.32 1.422,277.934"
           style="fill:none;stroke:#4fff3f;stroke-width:5.25;stroke-linecap:butt;stroke-linejoin:miter;stroke-miterlimit:10;stroke-dasharray:none;stroke-opacity:1"
           id="path26"
           inkscape:connector-curvature="0" /></g><g
         id="g28"><path
           d="m 221.309,408.414 c 86.191,0.109 171.691,0.109 258,0"
           style="fill:none;stroke:#3546ff;stroke-width:5.25;stroke-linecap:butt;stroke-linejoin:miter;stroke-miterlimit:10;stroke-dasharray:none;stroke-opacity:1"
           id="path30"
           inkscape:connector-curvature="0" /></g><g
         id="g32"><path
           d="m 112.605,409.547 c 31.012,0.109 59.512,0.109 89.145,0"
           style="fill:none;stroke:#3546ff;stroke-width:5.25;stroke-linecap:butt;stroke-linejoin:miter;stroke-miterlimit:10;stroke-dasharray:none;stroke-opacity:1"
           id="path34"
           inkscape:connector-curvature="0" /></g><path
         d="m 421.23,626.879 c -3.164,0 -4.386,-0.84 -4.371,-4.231 0.114,-28.375 0.114,-56.746 0,-85.117 0,-3.531 1.258,-4.5 4.602,-4.445 38.371,0.09 76.742,0.09 115.113,0 3.215,0 4.356,0.953 4.348,4.281 -0.106,28.367 -0.106,56.735 0,85.11 0,3.632 -1.328,4.41 -4.59,4.386 -19.117,-0.101 -38.25,-0.043 -57.359,-0.043 -19.223,0.008 -38.496,-0.047 -57.743,0.059 z m 159.036,63.527 c -28.875,-0.047 -57.75,-0.062 -86.625,-0.054 -1.575,-0.082 -3.149,-0.247 -4.707,-0.493 l -0.137,-1.328 c 7.824,-3.359 13.547,-11.019 23.215,-10.652 1,-0.047 1.972,-0.352 2.824,-0.883 3.609,-1.996 7.105,-4.18 10.75,-6.098 2.414,-1.277 3.293,-3.062 3.246,-5.746 -0.113,-7.5 0.09,-15 -0.105,-22.5 -0.082,-3.179 1.125,-4.214 4.148,-4.086 3.621,0.188 7.25,0.168 10.867,-0.062 1.313,-0.09 3.617,-1.102 3.653,-1.801 0.14,-3.164 -0.067,-6.336 -0.614,-9.457 -0.383,-2.332 -2.019,-4.551 -2.035,-6.832 -0.141,-28.242 -0.09,-56.496 -0.098,-84.75 0,-5.648 -0.476,-6.117 -6.261,-6.125 -4.5,0 -9,-0.113 -13.5,0 -3.254,0.109 -4.657,-0.855 -4.633,-4.465 0.133,-22.371 0.058,-44.746 0.074,-67.125 0,-1.148 0.238,-2.293 0.442,-4.222 1.71,1.335 2.835,2.054 3.75,3 5.589,5.543 11.25,11.019 16.644,16.734 2.953,3.125 4.379,0.605 6.383,-1.02 2.391,-1.945 1.574,-3.316 -0.227,-5.093 -8.453,-8.34 -16.882,-16.703 -25.117,-25.254 -1.48,-1.578 -2.363,-3.629 -2.5,-5.789 -0.141,-35.754 -0.035,-71.504 -0.172,-107.25 0,-3.696 1.391,-5.071 4.68,-6.391 4.879,-1.84 9.477,-4.348 13.668,-7.445 5.25,-4.059 5.062,-10.125 0,-14.485 -2.703,-2.332 -5.852,-4.996 -9.145,-5.601 -9.578,-1.77 -12.082,-8.102 -13.836,-16.559 -5.039,-24.324 -10.816,-48.496 -16.343,-72.715 -5.774,-25.312 -20.184,-85.988 -20.055,-86.332 0.75,-1.89 4.238,-14.496 4.5,-17.461 0.328,-3.953 1.77,-6.207 5.941,-7.304 4.821,-1.266 9.297,-3.883 9.368,-9.793 0.132,-12 0.117,-24 -0.161,-36 -0.101,-4.672 -1.761,-8.934 -7.019,-10.285 -3.242,-0.872 -6.535,-1.543 -9.863,-2.008 -4.032,-0.52 -5.457,-2.86 -2.832,-6 1.754,-2.094 4.41,-3.555 6.882,-4.899 4.59,-2.476 9.75,-4.093 13.93,-7.078 5.902,-4.203 6.84,-13.734 1.402,-18.699 -0.21,1.285 -0.293,2.586 -0.25,3.887 1.118,8.457 -0.605,11.707 -8.488,15.367 -2.371,1.101 -4.836,2 -7.262,3 -5.25,2.152 -9.89,4.883 -11.074,11.121 -0.422,2.25 -1.883,2.953 -4.172,3.465 -12.398,2.754 -14.363,3.051 -14.476,16.359 -0.082,10.25 0.16,20.504 -0.09,30.75 -0.117,4.879 2.191,7.785 6.219,9.672 2.011,0.945 4.367,1.195 6.316,2.25 1.371,0.75 3,2.051 3.375,3.414 1.793,6.75 3.262,13.598 4.703,20.438 0.27,1.281 -3.07,18.246 -4.5,25.343 -3.133,15.293 -6.265,30.582 -9.398,45.868 -3.231,15.656 -6.481,31.304 -9.75,46.953 -3.172,15.41 -6.449,30.801 -9.36,46.258 -0.847,4.5 -3,6.293 -7.394,7.296 -7.66,1.75 -15.235,4.215 -20.891,10.207 -3.832,4.067 -3.808,8.598 -0.082,12.707 1.098,1.364 2.457,2.497 4,3.329 5.555,2.484 11.188,4.785 16.875,6.961 2.074,0.796 4.071,1.296 4.063,4.074 0,8.625 0,17.25 -0.067,25.875 0,0.832 -0.75,1.656 -1.148,2.48 -0.754,-0.34 -1.461,-0.773 -2.113,-1.281 -3.219,-3.152 -6.481,-6.254 -9.504,-9.586 -2.032,-2.25 -3.532,-1.621 -5.25,0.246 -1.582,1.758 -3.75,3.25 -1.004,5.836 3.097,2.91 6.082,5.934 9,9 0.922,0.984 1.41,2.363 2.09,3.563 -1.274,0.293 -2.547,0.839 -3.825,0.839 -15.996,0.063 -32,-0.074 -48,0.129 -3.578,0.043 -4.777,-1.5 -5.601,-4.554 -1.059,-3.825 -2.094,-7.778 -3.969,-11.25 -1.152,-2.129 -3.652,-4.317 -5.93,-4.868 -3.226,-0.75 -5.25,2.25 -6.211,4.938 -2.085,5.602 -3.765,11.348 -5.027,17.187 -0.652,3.235 -1.965,4.809 -4.957,5.559 -14.406,3.586 -28.805,7.238 -43.215,10.852 -15,3.777 -30,7.546 -45,11.312 -14.879,3.75 -29.722,7.703 -44.64,11.309 -2.688,0.523 -5.453,0.472 -8.121,-0.157 -10.633,-2.191 -21.196,-4.71 -31.817,-6.968 -3.351,-0.75 -5.25,-2.289 -5.676,-5.852 -0.215,-2.488 -0.933,-4.906 -2.113,-7.109 -1.172,-1.957 -3.48,-4.703 -5.062,-4.559 -1.965,0.18 -4.118,2.692 -5.411,4.703 -1.289,2.008 -1.617,4.434 -2.031,6.75 -0.547,3.067 -1.883,4.461 -5.25,4.41 -10.621,-0.187 -21.246,-0.226 -31.867,0 -3.863,0.082 -5.305,-1.261 -4.832,-4.957 0.398,-3.144 -1.152,-4.203 -4.133,-4.195 -30,0.047 -60,0.047 -90,0 -2.715,0 -3.793,0.992 -3.75,3.75 0.094,10.75 0.094,21.5 0,32.25 0,2.672 1.098,3.543 3.61,3.406 2.363,-0.121 4.746,0 7.117,0 27.5,0 55,0 82.5,0 2.773,0 4.922,-0.179 4.867,-3.898 0,-0.84 2.062,-2.43 3.195,-2.453 11.496,-0.18 22.996,-0.09 34.5,-0.137 2.738,0 3.84,1.27 4.5,3.914 0.668,2.77 1.813,5.402 3.383,7.781 1.867,2.719 5.047,2.719 6.84,-0.07 1.644,-2.555 2.308,-5.73 3.75,-8.445 0.832,-1.559 2.129,-3.555 3.613,-3.973 10.684,-3 21.461,-5.73 32.25,-8.422 2.633,-0.66 5.535,-1.711 8.035,-1.211 13.34,2.672 26.594,5.77 39.871,8.731 17.063,3.804 34.11,7.617 51.141,11.429 14.25,3.168 28.5,6.465 42.801,9.325 4.742,0.945 6.293,3.515 7.344,7.828 1.101,4.59 2.867,8.988 5.25,13.058 2.46,4.141 6.375,4.09 9,0 2.074,-3.39 3.695,-7.035 4.824,-10.843 0.75,-2.407 1.648,-3.563 4.304,-3.555 19.243,0.086 38.493,0.086 57.75,0 2.918,0 3.989,1.141 3.981,3.996 -0.043,24.875 -0.043,49.75 0,74.625 0,3.203 -1.395,4.148 -4.328,4.082 -4.992,-0.121 -9.996,-0.047 -15,0 -6.297,0 -6.598,0.305 -6.598,6.516 0,28.246 -0.012,56.496 -0.039,84.75 0,1.558 0,3.75 -0.906,4.566 -2.86,2.574 -2.422,5.828 -2.68,9 -0.223,2.801 1.106,4.231 3.934,4.231 3.621,0 7.25,0.089 10.875,0 2.644,-0.075 3.898,0.886 3.906,3.675 0,7.246 0.074,14.496 0.426,21.75 0.082,1.746 0.91,4.192 2.25,5.024 5.027,3.219 10.39,5.918 15.633,8.808 l 19.746,10.86 c -0.09,0.402 -0.188,0.801 -0.278,1.207 -1.488,0.25 -2.992,0.41 -4.5,0.488 -24.75,0 -49.5,0 -74.25,0.059 -1.711,0 -3.422,0.621 -5.129,0.953 l 0.141,1.613 c 1.637,0.156 3.27,0.465 4.898,0.465 25.125,0 50.25,-0.047 75.375,0.074 4.809,0 9.606,0.801 14.415,1.192 0.753,0.023 1.507,-0.036 2.25,-0.18 2.308,-0.336 4.613,-1.02 6.921,-1.02 31.383,-0.074 62.754,-0.039 94.125,-0.074 1.606,-0.082 3.204,-0.254 4.786,-0.512 l 0.113,-1.672 c -1.59,-0.351 -3.211,-0.898 -4.824,-0.906 z M 104.953,424.637 C 91.23,424.508 77.496,424.582 63.766,424.582 H 22.941 c -5.121,0 -5.16,-0.043 -5.16,-5.293 0,-7.867 0.071,-15.75 -0.043,-23.598 -0.047,-3.148 1.012,-4.418 4.336,-4.418 27.594,0.098 55.184,0.098 82.77,0 3.222,0 4.437,1.016 4.379,4.305 -0.164,8.238 -0.164,16.488 0,24.75 0.097,3.195 -1.004,4.336 -4.27,4.309 z m 44.723,-6.438 c -5.488,-0.058 -10.973,0 -16.461,0 -5.61,0 -11.25,-0.066 -16.836,0.047 -2.559,0.051 -3.625,-0.937 -3.594,-3.496 0.039,-3.613 -0.058,-7.23 -0.172,-10.844 -0.074,-2.25 0.953,-3.105 3.149,-3.097 11.347,0.043 22.695,0 34.043,0 1.922,0 3,0.629 3,2.828 -0.059,3.859 0,7.73 0.129,11.593 0.066,2.379 -1.164,2.985 -3.258,2.969 z m 15.398,7.637 c -0.289,1.324 -0.797,2.59 -1.5,3.75 -1.23,2.18 -2.847,2.25 -3.75,-0.074 -1.207,-3 -2.422,-6.098 -2.797,-9.258 -1.14,-9.68 -1.558,-19.402 1.051,-28.988 0.055,-0.493 0.172,-0.981 0.352,-1.446 1.004,-1.605 2.086,-3.164 3.136,-4.742 1.168,1.606 3,3.07 3.375,4.84 1.258,6.195 2.008,12.504 2.918,18.508 -0.984,6.097 -1.808,11.785 -2.785,17.41 z m 35.844,-16.223 -30.106,7.59 V 401.578 L 201,408.422 c 0,0.394 -0.059,0.793 -0.082,1.191 z M 348,437.504 c -11.191,-2.543 -22.379,-5.121 -33.586,-7.617 -14.367,-3.211 -28.754,-6.348 -43.133,-9.535 -16.41,-3.641 -32.82,-7.293 -49.23,-10.957 -0.074,-0.465 -0.156,-0.93 -0.239,-1.395 l 128.25,-32.453 c 0.208,1.238 0.305,2.496 0.301,3.75 -1.836,18.543 -1.593,37.234 0.711,55.726 0.375,2.75 -0.996,2.954 -3.074,2.481 z m 21.594,13.105 c -0.856,2.86 -2.028,5.614 -3.496,8.211 -1.41,2.559 -3.75,2.535 -4.825,-0.047 -2.074,-4.902 -4.226,-9.921 -5.187,-15.109 -4.848,-25.973 -4.848,-52.617 0,-78.586 1.019,-4.875 2.598,-9.613 4.703,-14.125 1.59,-3.613 4.43,-3.664 5.75,0.047 2.527,7.117 4.93,14.438 6,21.871 1.555,10.5 1.867,21.117 2.348,27.141 -0.321,20.101 -1.051,35.558 -5.293,50.597 z m 65.332,-7.089 c -18.731,-0.098 -37.457,-0.098 -56.176,0 -3.121,0 -3.797,-1.067 -3.293,-4.043 3.75,-22.086 3.539,-44.25 0.66,-66.399 -0.441,-3.379 0.645,-4.199 3.699,-4.191 17.848,0.066 35.7,0 53.555,0.039 4.117,0 5.633,1.621 5.633,5.64 0,10.868 0,21.731 0,32.586 h -0.035 c 0,10.739 -0.082,21.473 0.051,32.25 0.039,3.016 -1.02,4.133 -4.094,4.118 z m 107.773,191.027 h -13.746 c 0,-0.242 0,-0.481 0,-0.75 h 13.711 c 0.02,0.269 0.027,0.476 0.035,0.75 z M 474.539,99.219 c -0.082,-0.571 1.824,-1.914 2.883,-1.989 0.816,-0.058 2.555,1.403 2.48,2.008 -0.457,3.586 -1.328,7.125 -2.062,10.684 h -1.086 c -0.789,-3.563 -1.727,-7.106 -2.215,-10.703 z m -28.91,185.48 c 5.723,-27.883 11.43,-55.765 17.121,-83.64 4.59,-22.379 9.191,-44.754 13.801,-67.125 0.148,-0.454 0.344,-0.891 0.586,-1.305 l 1.07,-0.149 c 11.934,52.067 23.867,104.129 36,156.989 -2.004,-0.035 -4.008,-0.18 -6,-0.426 -19.73,-3.691 -39.504,-3.602 -59.316,-0.824 -3.504,0.492 -3.977,-0.039 -3.262,-3.52 z m -17.305,34.442 c -3.836,-1.446 -7.445,-3.438 -10.715,-5.911 -4.132,-3.128 -4.164,-7.718 0.254,-10.605 4.739,-3.082 9.961,-5.934 15.375,-7.379 28.34,-7.687 58.215,-7.687 86.559,0 5.254,1.531 10.238,3.867 14.781,6.922 5.324,3.426 5.469,8.504 0,11.66 -6.277,3.617 -13.148,6.934 -20.168,8.363 -12.406,2.536 -37.808,4.5 -37.859,4.141 -16.434,-0.043 -32.688,-1.402 -48.227,-7.191 z M 442.5,488.137 c 0,-12.246 0.059,-24.496 -0.051,-36.75 0,-3.157 0.922,-4.41 4.281,-4.395 21.75,0.106 43.5,0 65.25,0 3.504,0 4.989,1.457 4.997,5.024 0,24.496 -0.047,48.992 0,73.5 0,3 -1.157,3.879 -4.016,3.863 -22.113,-0.074 -44.231,-0.074 -66.352,0 -3.089,0 -4.183,-1.051 -4.156,-4.133 0.098,-12.367 0.047,-24.742 0.047,-37.109 z m -0.066,-156.598 c 0,-4.637 0.195,-4.676 4.582,-4.016 20.656,3.106 41.25,3.204 61.882,-0.613 8.903,-1.648 7.274,-1.246 7.282,6 0.047,32.477 0.047,64.949 0,97.426 v 3.687 l -0.961,0.536 c -0.961,-0.696 -1.883,-1.45 -2.758,-2.25 -22.426,-22.438 -44.852,-44.868 -67.285,-67.293 -1.93,-1.766 -2.969,-4.305 -2.832,-6.922 0.156,-8.821 0.058,-17.692 0.074,-26.555 z m 0.089,49.125 c 0.079,-1.246 0.235,-2.484 0.473,-3.707 l 65.797,66.066 c -0.965,0.231 -1.949,0.372 -2.941,0.422 -19.731,0 -39.473,-0.047 -59.25,0.082 -3.391,0 -4.215,-1.254 -4.2,-4.41 0.145,-19.476 0.098,-38.969 0.098,-58.453 z m -10.296,255.109 h 92.652 c 0.09,0.375 0.187,0.75 0.277,1.125 -1.047,0.356 -2.105,1.024 -3.156,1.028 -28.75,0.058 -57.5,0.058 -86.25,0 -1.273,-0.133 -2.531,-0.403 -3.75,-0.801 0.098,-0.441 0.164,-0.898 0.227,-1.352 z m 8.25,35.043 c -9.75,-6.175 -8.184,-2.617 -8.348,-14.746 0,-2.617 0.117,-5.25 0,-7.867 -0.18,-3.055 1.004,-4.191 4.125,-4.172 14.25,0.121 28.5,0.055 42.75,0.055 13.992,0 27.988,0.09 42,-0.07 3.277,0 4.422,0.992 4.281,4.285 -0.219,5.25 0.137,10.5 -0.172,15.75 -0.222,1.742 -1.105,3.336 -2.468,4.445 -6.329,4.863 -13.403,6.856 -21.598,6.578 -15.227,-0.531 -30.481,-0.32 -45.75,-0.066 -5.266,0.16 -10.453,-1.305 -14.859,-4.192 z m 27.222,14.25 c -3.09,-1.687 -6.09,-3.519 -9.125,-5.25 0.11,-0.339 0.215,-0.675 0.328,-1.007 h 35.926 l 0.313,0.75 c -1.243,0.894 -2.465,1.816 -3.75,2.664 -1.282,0.847 -2.75,1.711 -4.129,2.558 -11.809,7.242 -6.977,7.168 -19.598,0.293 z"
         style="fill:#000000;fill-opacity:1;fill-rule:nonzero;stroke:none"
         id="path36"
         inkscape:connector-curvature="0" /><path
         d="m 454.875,125.699 c -4.859,0 -9.75,-0.097 -14.586,0 -3.879,0.113 -3.668,-2.414 -3.586,-5.008 0.082,-2.597 -0.617,-5.519 3.57,-5.5 9.75,0.055 19.446,0 29.176,0 2.36,0 3.442,1.059 3.367,3.407 -0.07,1.25 -0.07,2.5 0,3.75 0.164,2.453 -1.066,3.351 -3.363,3.336 -4.859,-0.012 -9.703,0.007 -14.578,0.015 z"
         style="fill:#000000;fill-opacity:1;fill-rule:nonzero;stroke:none"
         id="path38"
         inkscape:connector-curvature="0" /><path
         d="m 206.828,384.898 c 0,-4.738 0.082,-9.476 0,-14.25 -0.074,-3.32 1.559,-4.296 4.633,-4.273 3.078,0.023 4.629,1.078 4.598,4.363 -0.082,9.231 -0.082,18.465 0,27.707 0,3.203 -1.34,4.442 -4.5,4.5 -3.305,0.059 -4.852,-1.172 -4.754,-4.59 0.113,-4.464 0.023,-8.964 0.023,-13.457 z"
         style="fill:#000000;fill-opacity:1;fill-rule:nonzero;stroke:none"
         id="path40"
         inkscape:connector-curvature="0" /><path
         d="m 216,432.316 c 0,4.875 -0.066,9.75 0,14.618 0.066,3.441 -2.102,3.75 -4.711,3.75 -2.488,0 -4.5,-0.317 -4.5,-3.536 0.047,-9.625 0.047,-19.242 0,-28.859 0,-3.328 2.004,-3.883 4.672,-3.863 2.672,0.023 4.605,0.797 4.5,4.043 -0.027,4.597 0.039,9.226 0.039,13.847 z"
         style="fill:#000000;fill-opacity:1;fill-rule:nonzero;stroke:none"
         id="path42"
         inkscape:connector-curvature="0" /><path
         d="m 478.914,644.086 c 13.992,0 27.988,0.09 42,-0.07 3.277,0 4.422,0.992 4.281,4.285 -0.218,5.25 0.133,10.5 -0.172,15.75 -0.222,1.742 -1.105,3.336 -2.468,4.445 -6.328,4.863 -13.403,6.856 -21.602,6.578 -15.223,-0.531 -30.476,-0.32 -45.75,-0.066 -5.238,0.148 -10.394,-1.309 -14.781,-4.18 -9.75,-6.172 -8.184,-2.617 -8.348,-14.742 0,-2.617 0.121,-5.25 0,-7.867 -0.179,-3.055 1.004,-4.196 4.125,-4.172 14.227,0.105 28.473,0.039 42.715,0.039 z"
         style="fill:#ffffff;fill-opacity:1;fill-rule:nonzero;stroke:none"
         id="path44"
         inkscape:connector-curvature="0" /><path
         d="M 63.75,424.582 H 22.941 c -5.121,0 -5.16,-0.043 -5.16,-5.293 0,-7.867 0.071,-15.75 -0.043,-23.598 -0.047,-3.148 1.012,-4.418 4.336,-4.418 27.594,0.098 55.184,0.098 82.77,0 3.222,0 4.437,1.016 4.379,4.305 -0.164,8.238 -0.164,16.488 0,24.75 0.074,3.266 -1.028,4.375 -4.289,4.344 -13.704,-0.164 -27.438,-0.09 -41.184,-0.09 z m -25.898,-18 c 2.957,-0.644 5.453,-1.336 7.996,-1.633 0.586,-0.07 1.746,1.125 1.875,1.867 0.097,0.575 -0.879,1.696 -1.606,1.981 -1.531,0.488 -3.101,0.848 -4.695,1.078 -3.09,0.621 -5.195,3.066 -4.828,5.625 0.367,2.559 3.418,4.672 6.515,4.215 2.633,-0.391 5.25,-0.914 8.118,-1.434 -0.079,0.137 0.156,-0.082 0.156,-0.293 0,-3.351 -0.164,-6.703 -0.156,-10.054 0,-3.227 -1.571,-5.094 -4.629,-5.86 -3.203,-0.801 -7.5,0.496 -8.707,2.785 -0.262,0.539 -0.024,1.34 -0.024,1.739 z m 36.609,5.047 c 3,0 5.437,0.152 7.867,-0.059 1.5,-0.129 4.11,-0.75 4.133,-1.261 0.082,-1.813 -0.234,-4.02 -1.277,-5.446 -2.766,-3.75 -7.793,-3.937 -11.129,-0.75 -3.508,3.34 -3.524,10.246 0,13.5 3.136,2.949 8.828,2.813 11.429,-0.379 0.563,-0.683 0.625,-1.781 1.11,-3.308 -2.848,1.304 -4.828,2.73 -6.973,3.082 -3.008,0.515 -4.383,-1.664 -5.144,-5.363 z m -18.16,2.25 -1.145,1 c 0.946,1.289 1.656,3.312 2.887,3.703 2.25,0.707 4.957,1.043 7.086,0.344 1.57,-0.516 3.48,-2.914 3.473,-4.5 -0.008,-1.582 -2.098,-3.215 -3.629,-4.364 -1.239,-0.921 -3.067,-0.996 -4.5,-1.726 -0.75,-0.367 -1.157,-1.34 -1.719,-2.039 0.84,-0.555 1.734,-1.633 2.512,-1.559 1.39,0.133 2.687,1.028 4.058,1.5 0.664,0.117 1.34,0.153 2.012,0.098 0,-0.563 0.223,-1.547 0,-1.645 -2.137,-1.011 -4.457,-2.796 -6.488,-2.535 -2.309,0.512 -4.25,2.067 -5.25,4.207 -0.399,1.106 2.168,3.617 3.816,4.989 1.141,0.945 3.09,0.847 4.5,1.562 0.805,0.473 1.32,1.316 1.375,2.25 -0.105,0.703 -1.285,1.836 -1.898,1.777 -1.625,-0.218 -3.211,-0.675 -4.703,-1.351 -0.852,-0.477 -1.645,-1.043 -2.372,-1.695 z m -26.039,-6.106 c 0,2.86 -0.114,5.715 0.074,8.559 0.055,0.863 0.93,1.664 1.434,2.496 0.457,-0.785 1.289,-1.558 1.304,-2.344 0.106,-5.957 0.106,-11.914 0,-17.875 0,-0.75 -0.871,-1.5 -1.336,-2.285 -0.484,0.84 -1.347,1.656 -1.402,2.52 -0.18,2.929 -0.066,5.929 -0.074,8.929 z m 66.527,-6 c -2.176,0.993 -5.633,1.629 -5.844,2.829 -0.75,4.109 -0.351,8.421 -0.226,12.652 0,0.57 1.051,1.109 1.613,1.672 0.43,-0.653 1.164,-1.266 1.238,-1.957 0.18,-1.852 0.067,-3.75 0.106,-5.602 0.051,-2.945 0.066,-5.894 4.062,-6.414 0.414,-0.051 1.125,-1.289 0.977,-1.558 -0.367,-0.684 -1.168,-1.067 -1.926,-1.665 z"
         style="fill:#ffffff;fill-opacity:1;fill-rule:nonzero;stroke:none"
         id="path46"
         inkscape:connector-curvature="0" /><path
         d="m 458.863,678.789 h 35.926 l 0.316,0.75 c -1.246,0.891 -2.468,1.813 -3.75,2.66 -1.281,0.848 -2.753,1.711 -4.132,2.559 -11.774,7.254 -6.946,7.176 -19.567,0.301 -3.09,-1.688 -6.09,-3.52 -9.129,-5.25 0.121,-0.356 0.227,-0.692 0.336,-1.02 z"
         style="fill:#ffffff;fill-opacity:1;fill-rule:nonzero;stroke:none"
         id="path48"
         inkscape:connector-curvature="0" /><path
         d="m 432.227,635.773 h 92.652 c 0.09,0.375 0.187,0.75 0.277,1.125 -1.047,0.356 -2.105,1.024 -3.156,1.028 -28.75,0.058 -57.5,0.058 -86.25,0 -1.273,-0.133 -2.531,-0.403 -3.75,-0.801 0.098,-0.441 0.164,-0.898 0.227,-1.352 z"
         style="fill:#ffffff;fill-opacity:1;fill-rule:nonzero;stroke:none"
         id="path50"
         inkscape:connector-curvature="0" /><path
         d="m 528.961,633.824 h 13.711 c 0,0.242 0,0.481 0,0.75 h -13.719 c 0,-0.301 0.008,-0.508 0.008,-0.75 z"
         style="fill:#ffffff;fill-opacity:1;fill-rule:nonzero;stroke:none"
         id="path52"
         inkscape:connector-curvature="0" /><path
         d="m 37.867,406.598 c 0,-0.399 -0.238,-1.2 0,-1.727 1.215,-2.25 5.504,-3.582 8.707,-2.781 3.063,0.75 4.645,2.633 4.629,5.859 0,3.352 0.121,6.703 0.156,10.055 0,0.211 -0.23,0.43 -0.156,0.293 -2.879,0.519 -5.484,1.043 -8.117,1.433 -3.098,0.458 -6.133,-1.554 -6.516,-4.214 -0.382,-2.664 1.739,-5.004 4.828,-5.625 1.594,-0.231 3.164,-0.594 4.696,-1.082 0.75,-0.286 1.703,-1.403 1.605,-1.981 -0.125,-0.75 -1.289,-1.933 -1.875,-1.867 -2.504,0.301 -5,0.992 -7.957,1.637 z m 5.746,11.886 4.395,-5.175 c -0.75,-0.563 -1.547,-1.649 -2.25,-1.59 -2.348,0.203 -5.406,-0.157 -5.844,3.129 -0.105,0.824 1.891,1.925 3.699,3.636 z"
         style="fill:#000000;fill-opacity:1;fill-rule:nonzero;stroke:none"
         id="path54"
         inkscape:connector-curvature="0" /><path
         d="m 74.477,411.645 c 0.75,3.699 2.136,5.867 5.128,5.394 2.145,-0.355 4.125,-1.777 6.973,-3.086 -0.484,1.5 -0.547,2.625 -1.109,3.309 -2.602,3.195 -8.293,3.332 -11.43,0.383 -3.492,-3.286 -3.48,-10.192 0,-13.5 3.34,-3.172 8.363,-3 11.133,0.75 1.039,1.425 1.355,3.628 1.273,5.445 0,0.504 -2.656,1.133 -4.133,1.262 -2.398,0.195 -4.859,0.043 -7.835,0.043 z m 0.117,-3 c 2.785,0.179 4.898,0.414 7.008,0.398 0.605,0 1.664,-0.645 1.699,-1.082 0.035,-0.832 -0.274,-1.645 -0.848,-2.25 -2.008,-2.023 -5.391,-1.094 -7.859,2.898 z"
         style="fill:#000000;fill-opacity:1;fill-rule:nonzero;stroke:none"
         id="path56"
         inkscape:connector-curvature="0" /><path
         d="m 56.316,413.895 c 0.75,0.652 1.571,1.214 2.446,1.679 1.492,0.676 3.078,1.133 4.703,1.352 0.613,0.058 1.793,-1.074 1.898,-1.778 -0.054,-0.933 -0.57,-1.777 -1.375,-2.25 -1.422,-0.75 -3.375,-0.617 -4.5,-1.562 -1.648,-1.371 -4.215,-3.883 -3.816,-4.984 1,-2.145 2.941,-3.7 5.25,-4.211 2.031,-0.262 4.351,1.5 6.488,2.535 0.203,0.097 0,1.082 0,1.644 -0.672,0.055 -1.348,0.024 -2.012,-0.097 -1.371,-0.45 -2.668,-1.344 -4.054,-1.5 -0.75,-0.075 -1.672,1.004 -2.516,1.558 0.563,0.699 0.992,1.672 1.719,2.043 1.433,0.75 3.262,0.801 4.5,1.723 1.5,1.148 3.629,2.879 3.629,4.367 0,1.484 -1.903,3.957 -3.473,4.5 -2.129,0.695 -4.867,0.359 -7.086,-0.348 -1.23,-0.39 -1.941,-2.414 -2.887,-3.703 z"
         style="fill:#000000;fill-opacity:1;fill-rule:nonzero;stroke:none"
         id="path58"
         inkscape:connector-curvature="0" /><path
         d="m 30.262,407.773 c 0,-3 -0.106,-6 0.066,-8.929 0.055,-0.864 0.918,-1.68 1.406,-2.52 0.465,0.75 1.317,1.5 1.332,2.285 0.11,5.957 0.11,11.914 0,17.875 0,0.786 -0.847,1.559 -1.304,2.344 -0.5,-0.832 -1.379,-1.633 -1.434,-2.496 -0.18,-2.879 -0.066,-5.738 -0.066,-8.559 z"
         style="fill:#000000;fill-opacity:1;fill-rule:nonzero;stroke:none"
         id="path60"
         inkscape:connector-curvature="0" /><path
         d="m 96.789,401.73 c 0.75,0.598 1.559,0.981 1.926,1.622 0.148,0.269 -0.563,1.5 -0.977,1.558 -3.996,0.516 -4.011,3.465 -4.062,6.414 -0.039,1.875 0.074,3.75 -0.106,5.602 -0.074,0.687 -0.808,1.304 -1.238,1.957 -0.562,-0.563 -1.598,-1.102 -1.613,-1.672 -0.125,-4.231 -0.485,-8.543 0.226,-12.652 0.211,-1.2 3.668,-1.84 5.844,-2.829 z"
         style="fill:#000000;fill-opacity:1;fill-rule:nonzero;stroke:none"
         id="path62"
         inkscape:connector-curvature="0" /><path
         d="m 43.613,418.484 c -1.808,-1.711 -3.804,-2.812 -3.691,-3.636 0.437,-3.286 3.496,-2.926 5.844,-3.129 0.695,-0.059 1.5,1.027 2.25,1.59 z"
         style="fill:#ffffff;fill-opacity:1;fill-rule:nonzero;stroke:none"
         id="path64"
         inkscape:connector-curvature="0" /><path
         d="m 74.594,408.609 c 2.468,-3.992 5.851,-4.921 7.859,-2.906 0.574,0.606 0.883,1.418 0.848,2.25 0,0.438 -1.094,1.082 -1.699,1.082 -2.102,-0.015 -4.223,-0.246 -7.008,-0.426 z"
         style="fill:#ffffff;fill-opacity:1;fill-rule:nonzero;stroke:none"
         id="path66"
         inkscape:connector-curvature="0" /><path
         d="m 0,388.133 h 112.262 v 39.676 H 0 Z"
         style="fill:#000000;fill-opacity:1;fill-rule:nonzero;stroke:none"
         id="path68"
         inkscape:connector-curvature="0" /><text
         transform="matrix(0.97000002,0,0,1,19.785,414.675)"
         style="font-variant:normal;font-weight:bold;font-size:21.49487877px;font-family:'CMU Serif Extra';-inkscape-font-specification:CMUSerif-BoldNonextended;writing-mode:lr-tb;fill:#ffffff;fill-opacity:1;fill-rule:nonzero;stroke:none"
         id="text72"><tspan
           x="0 10.747439 21.494879 32.242317 39.400112 51.329769"
           y="0"
           sodipodi:role="line"
           id="tspan70">440 nm</tspan></text>
<path
         d="m 499.875,125.699 c -4.859,0 -9.75,-0.097 -14.586,0 -3.879,0.113 -3.668,-2.414 -3.586,-5.008 0.082,-2.597 -0.617,-5.519 3.57,-5.5 9.75,0.055 19.446,0 29.176,0 2.36,0 3.442,1.059 3.367,3.407 -0.07,1.25 -0.07,2.5 0,3.75 0.164,2.453 -1.066,3.351 -3.363,3.336 -4.859,-0.012 -9.703,0.007 -14.578,0.015 z"
         style="fill:#000000;fill-opacity:1;fill-rule:nonzero;stroke:none"
         id="path74"
         inkscape:connector-curvature="0" /><g
         id="g76"><path
           d="m 254.496,408.422 h 50.035"
           style="fill:none;stroke:#000000;stroke-width:5.25;stroke-linecap:butt;stroke-linejoin:miter;stroke-miterlimit:10;stroke-dasharray:none;stroke-opacity:1"
           id="path78"
           inkscape:connector-curvature="0" /></g><g
         id="g80"><path
           d="m 254.496,408.422 h 50.035"
           style="fill:none;stroke:#000000;stroke-width:5.25;stroke-linecap:butt;stroke-linejoin:miter;stroke-miterlimit:10;stroke-dasharray:none;stroke-opacity:1"
           id="path82"
           inkscape:connector-curvature="0" /></g><g
         id="g84"><path
           d="m 254.496,408.422 h 50.035"
           style="fill:none;stroke:#000000;stroke-width:5.25;stroke-linecap:butt;stroke-linejoin:miter;stroke-miterlimit:10;stroke-dasharray:none;stroke-opacity:1"
           id="path86"
           inkscape:connector-curvature="0" /></g><g
         id="g88"><path
           d="m 254.496,408.422 h 50.035"
           style="fill:none;stroke:#000000;stroke-width:5.25;stroke-linecap:butt;stroke-linejoin:miter;stroke-miterlimit:10;stroke-dasharray:none;stroke-opacity:1"
           id="path90"
           inkscape:connector-curvature="0" /></g><path
         d="m 299.332,416.047 28.457,-7.625 -28.457,-7.629 z"
         style="fill:#000000;fill-opacity:1;fill-rule:nonzero;stroke:none"
         id="path92"
         inkscape:connector-curvature="0" /><g
         id="g94"><path
           d="m 477.797,267.832 -0.152,-46.328"
           style="fill:none;stroke:#000000;stroke-width:5.25;stroke-linecap:butt;stroke-linejoin:miter;stroke-miterlimit:10;stroke-dasharray:none;stroke-opacity:1"
           id="path96"
           inkscape:connector-curvature="0" /></g><path
         d="m 477.797,267.832 -0.152,-46.328"
         style="fill:#231f20;fill-opacity:1;fill-rule:nonzero;stroke:none"
         id="path98"
         inkscape:connector-curvature="0" /><g
         id="g100"><path
           d="m 477.797,267.832 -0.152,-46.328"
           style="fill:#231f20;fill-opacity:1;fill-rule:nonzero;stroke:#000000;stroke-width:5.25;stroke-linecap:butt;stroke-linejoin:miter;stroke-miterlimit:10;stroke-dasharray:none;stroke-opacity:1"
           id="path102"
           inkscape:connector-curvature="0" /></g><g
         id="g104"><path
           d="m 477.797,267.832 -0.152,-46.328"
           style="fill:#231f20;fill-opacity:1;fill-rule:nonzero;stroke:#000000;stroke-width:5.25;stroke-linecap:butt;stroke-linejoin:miter;stroke-miterlimit:10;stroke-dasharray:none;stroke-opacity:1"
           id="path106"
           inkscape:connector-curvature="0" /></g><g
         id="g108"><path
           d="m 477.797,267.832 -0.152,-46.328"
           style="fill:none;stroke:#000000;stroke-width:5.25;stroke-linecap:square;stroke-linejoin:round;stroke-miterlimit:4;stroke-dasharray:none;stroke-opacity:1"
           id="path110"
           inkscape:connector-curvature="0" /></g><path
         d="m 485.289,226.68 -7.727,-28.434 -7.531,28.488 z"
         style="fill:#000000;fill-opacity:1;fill-rule:nonzero;stroke:none"
         id="path112"
         inkscape:connector-curvature="0" /><g
         id="g114"><path
           d="m 479.941,472.996 0.59,115.492"
           style="fill:none;stroke:#000000;stroke-width:5.25;stroke-linecap:butt;stroke-linejoin:miter;stroke-miterlimit:10;stroke-dasharray:none;stroke-opacity:1"
           id="path116"
           inkscape:connector-curvature="0" /></g><path
         d="m 472.336,478.23 7.484,-28.492 7.77,28.418 z"
         style="fill:#000000;fill-opacity:1;fill-rule:nonzero;stroke:none"
         id="path118"
         inkscape:connector-curvature="0" /><path
         d="m 472.875,583.328 7.777,28.41 7.477,-28.492 z"
         style="fill:#000000;fill-opacity:1;fill-rule:nonzero;stroke:none"
         id="path120"
         inkscape:connector-curvature="0" /><text
         transform="translate(242.15341,726.76962)"
         style="font-variant:normal;font-weight:bold;font-size:29.42129517px;font-family:'CMU Serif Extra';-inkscape-font-specification:CMUSerif-BoldNonextended;writing-mode:lr-tb;fill:#000000;fill-opacity:1;fill-rule:nonzero;stroke:none"
         id="text124"><tspan
           x="0 16.328819 30.627567 55.135506 71.464325 79.614021 93.324348 103.2099 124.45208 132.60178 144.07608 160.40491 170.20219 188.64934 196.79904 213.12785 227.8385 240.48967 255.20032 271.52914 287.85794 302.5686 315.1315 328.84183"
           y="0"
           sodipodi:role="line"
           id="tspan122">Sample with Fluorophores</tspan></text>
<text
         transform="translate(232.76273,69.685841)"
         style="font-variant:normal;font-weight:bold;font-size:30.07802963px;font-family:'CMU Serif Extra';-inkscape-font-specification:CMUSerif-BoldNonextended;writing-mode:lr-tb;fill:#000000;fill-opacity:1;fill-rule:nonzero;stroke:none"
         id="text128"><tspan
           x="0 20.543293 37.236599 52.275616 64.006042 79.045059 89.061043 105.75435 119.77071 131.59137 145.60774 158.96239 170.69281 185.73183"
           y="0"
           sodipodi:role="line"
           id="tspan126">Photo-detector</tspan></text>
<text
         transform="translate(202.05629,223.90872)"
         style="font-variant:normal;font-weight:bold;font-size:31.62407112px;font-family:'CMU Serif Extra';-inkscape-font-specification:CMUSerif-BoldNonextended;writing-mode:lr-tb;fill:#000000;fill-opacity:1;fill-rule:nonzero;stroke:none"
         id="text132"><tspan
           x="0 21.599241 30.359108 47.910469 65.46183 81.273865 90.03373 104.77055"
           y="0"
           sodipodi:role="line"
           id="tspan130">Pinholes</tspan></text>
<g
         id="g134"><path
           d="m 240.75,244.664 -17.625,80.582"
           style="fill:none;stroke:#000000;stroke-width:3;stroke-linecap:butt;stroke-linejoin:miter;stroke-miterlimit:10;stroke-dasharray:none;stroke-opacity:1"
           id="path136"
           inkscape:connector-curvature="0" /></g><path
         d="m 217.59,305.879 2.976,-0.395 2.618,19.477 10.515,-16.606 2.535,1.606 -14.925,23.562 z"
         style="fill:#000000;fill-opacity:1;fill-rule:nonzero;stroke:none"
         id="path138"
         inkscape:connector-curvature="0" /><g
         id="g140"><path
           d="M 286.484,187.273 399.359,139.574"
           style="fill:none;stroke:#000000;stroke-width:3;stroke-linecap:butt;stroke-linejoin:miter;stroke-miterlimit:10;stroke-dasharray:none;stroke-opacity:1"
           id="path142"
           inkscape:connector-curvature="0" /></g><path
         d="m 386.738,155.273 -2.047,-2.207 14.399,-13.371 -19.629,0.996 -0.149,-3 27.856,-1.418 z"
         style="fill:#000000;fill-opacity:1;fill-rule:nonzero;stroke:none"
         id="path144"
         inkscape:connector-curvature="0" /><g
         id="g146"><path
           d="m 27,520.273 h 78 v 28.016 H 27 Z"
           style="fill:#4fff3f;fill-opacity:1;fill-rule:nonzero;stroke:#4fff3f;stroke-width:5.25;stroke-linecap:butt;stroke-linejoin:round;stroke-miterlimit:4;stroke-dasharray:none;stroke-opacity:1"
           id="path148"
           inkscape:connector-curvature="0" /></g><g
         id="g150"><path
           d="m 27,571.273 h 78 v 28.016 H 27 Z"
           style="fill:#3546ff;fill-opacity:1;fill-rule:nonzero;stroke:#3546ff;stroke-width:5.25;stroke-linecap:butt;stroke-linejoin:round;stroke-miterlimit:4;stroke-dasharray:none;stroke-opacity:1"
           id="path152"
           inkscape:connector-curvature="0" /></g><text
         transform="translate(114.75555,539.02458)"
         style="font-variant:normal;font-weight:bold;font-size:24.23677826px;font-family:'CMU Serif Extra';-inkscape-font-specification:CMUSerif-BoldNonextended;writing-mode:lr-tb;fill:#000000;fill-opacity:1;fill-rule:nonzero;stroke:none"
         id="text158"><tspan
           x="0 16.553719 30.005131 42.12352 51.575863 64.372879 75.667221 88.440002 99.201134 105.91472 115.36707 127.14614 136.67119 143.38478 155.50317 168.95457 177.02542 191.56749 198.28108 210.39948 223.19649"
           y="0"
           sodipodi:role="line"
           id="tspan154">Photoexcitation Light</tspan><tspan
           x="-0.86559713 13.67647 25.455544 35.004833 46.299171 56.648277 64.791832 79.600502 89.949608 101.72868 115.1801 124.72939 144.99133 151.70493 161.25421 170.8035 177.51709 189.63548 203.08688 211.15773 225.6998 232.41339 244.53178 257.35303"
           y="58.86071"
           sodipodi:role="line"
           id="tspan156">Laser Transmission Light</tspan></text>
</g><text
       xml:space="preserve"
       style="font-style:normal;font-variant:normal;font-weight:normal;font-stretch:normal;font-size:24.85225487px;line-height:1.25;font-family:'TeX Gyre DejaVu Math';-inkscape-font-specification:'TeX Gyre DejaVu Math, Normal';font-variant-ligatures:normal;font-variant-caps:normal;font-variant-numeric:normal;font-feature-settings:normal;text-align:start;letter-spacing:0px;word-spacing:0px;writing-mode:lr-tb;text-anchor:start;fill:#000000;fill-opacity:1;stroke:none;stroke-width:0.62130636"
       x="169.27708"
       y="660.53448"
       id="text967"><tspan
         sodipodi:role="line"
         id="tspan965"
         x="169.27708"
         y="660.53448"
         style="font-style:normal;font-variant:normal;font-weight:bold;font-stretch:normal;font-size:24.85225487px;font-family:'CMU Serif Extra';-inkscape-font-specification:'CMU Serif Extra, Bold';font-variant-ligatures:normal;font-variant-caps:normal;font-variant-numeric:normal;font-feature-settings:normal;text-align:start;writing-mode:lr-tb;text-anchor:start;stroke-width:0.62130636">Objective Lense</tspan></text>
<path
       style="fill:none;stroke:#000000;stroke-width:2.10000005;stroke-linecap:butt;stroke-linejoin:miter;stroke-opacity:1;stroke-miterlimit:4;stroke-dasharray:none"
       d="m 350.59691,656.21293 59.80448,5.48665"
       id="path971"
       inkscape:connector-curvature="0" /><path
       style="opacity:0;fill:none;fill-opacity:1;stroke:#000000;stroke-width:2.0999999;stroke-linecap:round;stroke-linejoin:round;stroke-miterlimit:4;stroke-dasharray:none;stroke-dashoffset:12.81000042;stroke-opacity:1;paint-order:stroke fill markers"
       id="path975"
       d="m 407.82502,663.01418 c -0.33106,-0.9251 -0.74596,-1.80316 -1.25789,-2.64014 -0.54158,-0.66312 -1.03751,-1.36469 -1.59602,-2.01312 -0.68344,-0.78277 -1.50874,-1.41017 -2.21025,-2.17351 -1.16664,-1.23997 -2.36818,-2.44595 -3.57719,-3.64436 -0.82843,-0.88215 -1.76428,-1.63331 -2.71456,-2.37277 -0.4185,-0.27768 -0.21873,-0.12866 -0.5999,-0.44629 0,0 4.87479,-3.05338 4.87479,-3.05338 v 0 c 0.35931,0.29004 0.1669,0.1403 0.57911,0.44679 0.95038,0.76366 1.84719,1.58626 2.69205,2.46685 1.1943,1.21914 2.39517,2.43167 3.59568,3.64468 0.74601,0.74144 1.60469,1.36268 2.28123,2.17596 0.55782,0.68417 1.09453,1.38596 1.6271,2.09023 0.52869,0.84684 0.9095,1.75794 1.3107,2.66938 0,0 -5.00485,2.84968 -5.00485,2.84968 z"
       inkscape:connector-curvature="0" /><path
       style="fill:none;stroke:#000000;stroke-width:2.10000014;stroke-linecap:butt;stroke-linejoin:miter;stroke-miterlimit:4;stroke-dasharray:none;stroke-opacity:1"
       d="m 410.60851,661.61849 -16.117,-9.73865"
       id="path977"
       inkscape:connector-curvature="0" /><path
       style="fill:none;stroke:#000000;stroke-width:2.10000014;stroke-linecap:butt;stroke-linejoin:miter;stroke-miterlimit:4;stroke-dasharray:none;stroke-opacity:1"
       d="m 410.60851,661.61849 -16.70131,6.91099"
       id="path994"
       inkscape:connector-curvature="0" /><path
       style="fill:#000000;fill-opacity:1;stroke:none;stroke-width:0.86947054px;stroke-linecap:butt;stroke-linejoin:miter;stroke-opacity:1"
       d="m 410.95114,662.61238 1.83545,-0.90407 -1.92285,-1.15725 -1.00513,1.12107 z"
       id="path996"
       inkscape:connector-curvature="0" /></g></svg>